<?xml version="1.0" encoding="UTF-8" standalone="no"?>
<!-- Created with Inkscape (http://www.inkscape.org/) -->

<svg
   width="210mm"
   height="297mm"
   viewBox="0 0 210 297"
   version="1.1"
   id="svg1"
   inkscape:version="1.3.2 (091e20e, 2023-11-25, custom)"
   sodipodi:docname="drawing.svg"
   xmlns:inkscape="http://www.inkscape.org/namespaces/inkscape"
   xmlns:sodipodi="http://sodipodi.sourceforge.net/DTD/sodipodi-0.dtd"
   xmlns="http://www.w3.org/2000/svg"
   xmlns:svg="http://www.w3.org/2000/svg">
  <sodipodi:namedview
     id="namedview1"
     pagecolor="#ffffff"
     bordercolor="#000000"
     borderopacity="0.25"
     inkscape:showpageshadow="2"
     inkscape:pageopacity="0.0"
     inkscape:pagecheckerboard="0"
     inkscape:deskcolor="#d1d1d1"
     inkscape:document-units="mm"
     inkscape:zoom="0.69219276"
     inkscape:cx="397.28818"
     inkscape:cy="561.25984"
     inkscape:window-width="1920"
     inkscape:window-height="991"
     inkscape:window-x="-9"
     inkscape:window-y="-9"
     inkscape:window-maximized="1"
     inkscape:current-layer="layer1" />
  <defs
     id="defs1" />
  <g
     inkscape:label="Layer 1"
     inkscape:groupmode="layer"
     id="layer1">
    <path
       style="fill:#000000;stroke-width:0.264583"
       d="m 59.629344,82.945945 c -18.347492,39.370655 0,0 0,0 z"
       id="path17" />
    <path
       style="fill:#000000;stroke-width:0.260238"
       d="m 82.646801,92.501931 -17.742079,33.325039 13.967169,0.37444 -20.007027,25.46181 h 21.51699 v 14.22867 h 18.119572 l -0.37749,-14.97754 h 21.516994 l -20.762014,-25.83626 11.324734,-0.37444 z"
       id="path18" />
    <path
       style="fill:#000000;stroke-width:1.44468"
       d="m 304.10604,599.56683 v -26.7038 l -39.81146,-0.38403 -39.81147,-0.38403 36.91085,-46.95223 c 20.30096,-25.82374 36.91591,-47.3446 36.92209,-47.82414 0.006,-0.47954 -11.07769,-1.22093 -24.63084,-1.64753 -13.55315,-0.4266 -24.99176,-1.12531 -25.41914,-1.55269 -0.83108,-0.83108 63.29307,-122.32459 64.50808,-122.22092 0.39728,0.0339 23.3175,26.51338 50.9338,58.84328 57.56804,67.39386 54.60951,60.47682 25.99563,60.77775 -8.93898,0.094 -16.25269,0.66318 -16.25269,1.26483 0,0.60164 17.24681,22.54279 38.32624,48.75809 l 38.32625,47.6642 -39.95731,0.38435 -39.95731,0.38435 0.64508,28.14817 0.64508,28.14816 h -33.68644 -33.68644 z"
       id="path19"
       transform="scale(0.26458333)" />
    <path
       style="fill:#000000;stroke-width:1.44468"
       d="m 304.10604,599.56683 v -26.7038 l -39.81146,-0.38403 -39.81147,-0.38403 36.91085,-46.95223 c 20.30096,-25.82374 36.91591,-47.3446 36.92209,-47.82414 0.006,-0.47954 -11.07769,-1.22093 -24.63084,-1.64753 -13.55315,-0.4266 -24.99388,-1.12743 -25.42385,-1.5574 -0.96295,-0.96295 63.44563,-122.4272 64.66715,-121.95186 0.48218,0.18763 23.39362,26.67053 50.91431,58.85087 57.35987,67.07173 54.42513,60.2054 25.86076,60.50581 -8.93898,0.094 -16.2279,0.65851 -16.19759,1.25444 0.0303,0.59593 17.25702,22.53708 38.2816,48.75809 l 38.22649,47.67459 -39.92588,0.38437 -39.92589,0.38437 0.70674,28.14814 0.70675,28.14815 h -33.73488 -33.73488 z"
       id="path20"
       transform="scale(0.26458333)" />
    <path
       style="fill:#000000;stroke-width:1.44468"
       d="m 304.10604,599.56683 v -26.7038 l -39.83908,-0.38403 -39.83908,-0.38403 36.90655,-46.95223 c 20.29861,-25.82374 36.92598,-47.3446 36.94972,-47.82414 0.0237,-0.47954 -11.04579,-1.22093 -24.59894,-1.64753 -13.55315,-0.4266 -24.99564,-1.12919 -25.42777,-1.56132 -0.99301,-0.99301 63.46279,-122.43469 64.73007,-121.95843 0.51464,0.1934 23.43473,26.68102 50.93353,58.86136 57.32452,67.08375 54.39333,60.20491 25.78254,60.50581 -8.93898,0.094 -16.2313,0.65851 -16.20513,1.25444 0.0261,0.59593 17.27167,22.53708 38.3234,48.75809 l 38.27584,47.67459 -39.96769,0.38437 -39.96769,0.38437 0.70674,28.14814 0.70675,28.14815 h -33.73488 -33.73488 z"
       id="path21"
       transform="scale(0.26458333)" />
    <path
       style="fill:#000000;stroke-width:1.44468"
       d="m 304.10604,599.56683 v -26.7038 l -39.83434,-0.38403 -39.83434,-0.38403 36.80619,-46.95223 c 20.2434,-25.82374 36.5651,-47.34293 36.27044,-47.82043 -0.29465,-0.47751 -11.32689,-1.22465 -24.51607,-1.66031 -13.18919,-0.43566 -24.32956,-1.14133 -24.75639,-1.56816 -0.98734,-0.98734 63.48256,-122.44029 64.7354,-121.95312 0.51235,0.19924 23.45288,26.69162 50.97895,58.87196 57.3997,67.10518 54.46288,60.20382 25.7477,60.50581 -8.93898,0.094 -16.25269,0.60135 -16.25269,1.12742 0,0.52608 17.28722,22.46721 38.41604,48.7581 l 38.41604,47.8016 -40.07111,0.38438 -40.07112,0.3844 0.76373,28.14812 0.76373,28.14813 h -33.78108 -33.78108 z"
       id="path22"
       transform="scale(0.26458333)" />
    <path
       style="fill:#000000;stroke-width:1.44468"
       d="m 304.10604,599.56683 v -26.7038 l -39.9021,-0.38403 -39.90209,-0.38403 29.45186,-37.56179 c 41.25975,-52.62113 43.39201,-55.47054 42.5406,-56.84815 -0.41695,-0.67465 -11.2308,-1.59006 -24.03077,-2.03424 -12.79997,-0.44419 -23.62841,-1.16335 -24.0632,-1.59814 -0.99471,-0.99471 63.51647,-122.39834 64.7798,-121.90915 0.51059,0.1977 23.44622,26.68884 50.96807,58.86918 57.02477,66.67708 54.14734,60.29347 27.28532,60.53273 -8.89209,0.0792 -16.45005,0.63159 -16.79548,1.22752 -0.34541,0.59593 16.57872,22.53708 37.60921,48.75809 l 38.23722,47.67459 -40.08016,0.3844 -40.08017,0.38441 0.81593,28.1481 0.81593,28.14812 h -33.82498 -33.82499 z"
       id="path23"
       transform="scale(0.26458333)" />
    <path
       style="fill:#000000;stroke-width:1.44468"
       d="m 304.10604,599.56683 v -26.7038 l -39.90622,-0.38403 -39.90622,-0.38403 21.51664,-27.449 c 48.71507,-62.14633 51.56022,-65.98345 49.75351,-67.10006 -0.974,-0.60196 -11.85765,-1.46263 -24.18588,-1.91259 -12.32824,-0.44996 -22.75899,-1.16213 -23.17947,-1.58261 -0.61079,-0.61079 23.98683,-47.77921 59.79987,-114.67226 2.22944,-4.16425 4.47728,-7.41479 4.99518,-7.22342 0.83485,0.30847 65.62672,75.56017 91.12098,105.83132 11.54666,13.71017 11.90188,13.33872 -12.96616,13.55906 -10.96364,0.0971 -16.2527,0.67145 -16.2527,1.76478 0,0.89143 16.96769,22.83257 37.70599,48.7581 l 37.70597,47.13732 -40.09743,0.38441 -40.09743,0.38442 0.86321,28.1481 0.86322,28.1481 h -33.86653 -33.86653 z"
       id="path24"
       transform="scale(0.26458333)" />
    <path
       style="fill:#008000;stroke-width:1.44468"
       d="m 304.10604,599.54398 v -26.72666 h -39.72882 c -21.85085,0 -39.72881,-0.29228 -39.72881,-0.64949 0,-0.35721 15.60849,-20.56433 34.68554,-44.9047 19.07705,-24.34036 35.3362,-45.47099 36.13146,-46.95694 1.8272,-3.41416 -0.77923,-3.8763 -27.25719,-4.83291 -10.60617,-0.38318 -19.61911,-1.03186 -20.02876,-1.44151 -0.40965,-0.40965 9.17404,-19.46981 21.29709,-42.35591 36.38245,-68.68346 42.53026,-79.90951 43.55522,-79.53294 1.00366,0.36875 88.32329,101.95341 96.37349,112.11762 l 4.45944,5.63049 -4.49597,0.89919 c -2.47278,0.49456 -11.24083,0.8992 -19.48456,0.8992 -8.35133,0 -14.9886,0.59909 -14.9886,1.35289 0,1.56601 10.41602,14.99919 48.23976,62.21322 l 27.19784,33.95008 -40.11342,0.38443 -40.11342,0.38441 0.90551,28.1481 0.9055,28.14809 h -33.90565 -33.90565 z"
       id="path25"
       transform="scale(0.26458333)" />
  </g>
  <path d="M 100, 30 m -25, 90 a 5,5 0 1,0 12.5,0 a 5,5 0 1,0 -12.5,0" fill="red" stroke="black"/>
  <path d="M 120, 50 m -25, 90 a 5,5 0 1,0 12.5,0 a 5,5 0 1,0 -12.5,0" fill="blue" stroke="black"/>
  <path d="M 95, 54 m -25, 90 a 5,5 0 1,0 12.5,0 a 5,5 0 1,0 -12.5,0" fill="yellow" stroke="black"/>
</svg>
